<?xml version="1.0" encoding="utf-8"?>
<!-- Generator: Adobe Illustrator 22.1.0, SVG Export Plug-In . SVG Version: 6.00 Build 0)  -->
<svg version="1.1" id="Layer_1" xmlns="http://www.w3.org/2000/svg" xmlns:xlink="http://www.w3.org/1999/xlink" x="0px" y="0px"
	 viewBox="0 0 575 560" style="enable-background:new 0 0 575 560;" xml:space="preserve">
<style type="text/css">
	.st0{fill-rule:evenodd;clip-rule:evenodd;}
</style>
<path class="st0" d="M248.4,365.8c-2,10.3-4.7,20.5-5.8,30.9c-1.9,17.1-16.3,24.5-26.2,36.5c-18.1-5.8-36.1,6.3-52.7-1.2
	c-16.2,12.9-8.8,33.9-19.8,47.4c-13.3-4.6-11.8-13.9-9.1-22.9c1.3-4.3,4.3-8,6.5-12.1c15.5-29,14.7-35.9-7.7-59.8
	c8-15.6,0.5-27.6-11.4-37.3c4.6-22.8-0.1-48,28.1-63c-16-4.9-31.3-3.9-38.4-17.3c-6.2-11.6-10.1-24.1-10.4-37.1
	c-4.4-6.4-11.9-5.9-17.1-8.9c1.7-12.3,16.7-22.1,5.4-36.9c-10.5,0.1-19.7,3.8-29,10c4.2-8.3,13-14.7,9.9-23.3
	c-3.6-8.9-10.9-6.7-16.7-9.8c3.1-7.7-3.7-17.2,5.3-24c-3-7.2-11.4-12.3-6.8-22.6c4.9-4.8,19.5,6.4,16-13.8
	c15.8,12.4,29.5,14.9,44,16.9c70.4,9.5,136.3,72.6,144.4,123.1c-11.7-13-17.4-30.7-31.5-42c-14.2-11.4-23-28.5-41.7-39.2
	c3.1,20.9-13,27.3-23.7,36.6c-1.1,6.8,4.4,8.3,7.1,11.8c-0.4,4.7-8.3,0.8-7.4,7.1c1.6,6.7,9.2,1.8,12.6,5.7
	c-6.7,5.9-18,2.9-23.8,13.2c12.6,0.6,25-3.4,36.9,2.8c-11.3,5.2-25.1,3.1-33.3,15c43.5-6.5,84,6.3,123.7,17.6
	c11.5-16-9-42.5,19.3-51.9c8.3,17.4,1.1,33.5,4.6,51.5c41.1-10.5,81-23.9,126.8-15c-10.6-14.6-24-12.6-34.9-16.1
	c10.1-10,22.5-2.9,35.1-3.7c-4.2-10.9-16-5.9-20.9-13.1c1.6-4.6,7.7,0,10.5-4c2.4-5.7-2.8-5.6-6.3-7.2c-0.6-5.7,8.2-6.2,6.7-13.3
	c-8.9-9.9-27-14.6-24.8-35.3c-31.3,23.7-55.8,52.2-75.7,85.2c4.2-21.5,13.6-40.6,27.3-57c20.8-24.9,45.4-45.5,75.7-58.3
	c12.4-5.2,24.3-10.5,26.3-29.8c8.9,12,16.5,7.7,23.7,3.1c5.2,6,7.9,12.3,15.3,15.6c16.6,7.3,19.9,17.2,13.1,35
	c-5.6,14.6-12.2,28.9-18,42.4c2.1,8.6,10.3,9.6,13.9,15.7c-2.2,8.7-11.9,10.5-17.3,16.2c-8.1,42.5-12.3,47.5-47.4,54
	c9.2,8.5,16.3,17.6,20.9,28.4c4.8,11.2-2.2,23.8,5.4,32.8c-2.3,7.5-10.4,8.5-11.1,17.4c0.6,9,9.8,15.9,13.7,25.5
	c-5.8,2-5.5-7.3-7.4-6.6c-9,1.8-4.7,7.4-8.2,10.1c-19.8,15.6-21.3,20.5-12.5,42c3.2,7.9,7.8,15.2,11.6,22.8
	c4.7,9.5,3.7,17.6-6.5,23.9c-8.7-5-8.3-13.7-9.4-22c-3.3-24.8-14.2-32.5-38.7-27.7c-30.3,6-46.6-5.3-52.4-36.7
	c-5.3-28.8-15.9-56.3-24.3-89.1c17.5,19.2,14.4,40.8,21.5,58.7c21.6-7.4,23.7-7.1,50.2,7c-5.9-13.9,14.6-20.3,6-33.9
	c7.4-5.7,14.4-11.2,20.5-15.9c-8.5-16.7-26.6-25.4-33.7-44.8c-15.5-0.4-32.2-8.4-46.4,6.4c-5.7-15.7-18.3-5.5-28.1-8.4
	c-6.9,20-5.4,40.1-10.9,60.1c-8.9-19.3-2.8-40.4-9.3-58.7c-24.3-2.2-24.3-2.2-31.1,7.8c-9.2-10.6-14.8-11.4-46-6.9
	c-7.6,17.2-24.6,27.5-34.5,44.2c4.7,8,21,8.8,19.4,21.3c-1.4,11.1,16.8,15.7,5.5,28.9c19.3-10.6,36.9-19,55.7-3.6L248.4,365.8z"/>
<path class="st0" d="M297.7,153.1c0.2,12.2,3.9,22,6.9,32c2.8,9.6,1.8,18.9-9.8,21.9c-11.9,3-16.3-5.5-18.8-14.9
	C271.8,176.2,277.8,165.2,297.7,153.1z"/>
<path class="st0" d="M248.5,366.2c-0.8-24.6,3.8-47.5,21.4-68.8c-7.6,24.3-14.6,46.3-21.5,68.4L248.5,366.2z"/>
</svg>
