<?xml version="1.0" encoding="utf-8"?>
<!-- Generator: Adobe Illustrator 22.1.0, SVG Export Plug-In . SVG Version: 6.00 Build 0)  -->
<svg version="1.1" id="Layer_1" xmlns="http://www.w3.org/2000/svg" xmlns:xlink="http://www.w3.org/1999/xlink" x="0px" y="0px"
	 viewBox="0 0 180 29" style="enable-background:new 0 0 180 29;" xml:space="preserve">
<g>
	<path d="M68.7,22l-0.6-1.9h-5L62.4,22h-3.9l5.4-15.9h3.5L72.6,22H68.7z M64.3,16.4h2.6l-1.3-3.9L64.3,16.4z"/>
	<path d="M80.5,22c-1,0-2-0.2-3-0.6c-1-0.4-1.9-1-2.6-1.7c-0.8-0.8-1.3-1.6-1.7-2.6c-0.4-1-0.6-2-0.6-3c0-1.1,0.2-2.1,0.6-3.1
		c0.4-1,1-1.8,1.7-2.6c0.8-0.8,1.7-1.4,2.6-1.8c1-0.4,2-0.6,3-0.6s2,0.2,3,0.6s1.9,1,2.6,1.8l-2.6,2.6c-0.4-0.4-0.9-0.7-1.4-0.9
		c-0.5-0.2-1.1-0.3-1.6-0.3c-0.5,0-1.1,0.1-1.6,0.3s-1,0.5-1.4,0.9c-0.4,0.4-0.7,0.9-0.9,1.4c-0.2,0.5-0.3,1.1-0.3,1.6
		s0.1,1.1,0.3,1.6c0.2,0.5,0.5,1,0.9,1.4c0.4,0.4,0.9,0.7,1.4,0.9c0.5,0.2,1.1,0.3,1.6,0.3c0.5,0,1.1-0.1,1.6-0.3
		c0.5-0.2,1-0.5,1.4-0.9l2.6,2.6c-0.8,0.8-1.7,1.4-2.6,1.7C82.6,21.8,81.6,22,80.5,22z"/>
	<path d="M92,22.3c-0.5,0-1-0.1-1.5-0.2c-0.5-0.1-1-0.4-1.4-0.6c-0.8-0.5-1.4-1.2-1.8-2s-0.7-1.7-0.7-2.6h3.7c0,0.4,0.1,0.8,0.3,1
		s0.4,0.4,0.5,0.5c0.3,0.2,0.5,0.3,0.8,0.3c0.3,0,0.6,0,0.9-0.2c0.2-0.1,0.4-0.2,0.5-0.3c0.1-0.1,0.2-0.3,0.3-0.4
		c0.1-0.1,0.1-0.2,0.1-0.4c0-0.1,0-0.2,0-0.3s0-0.2,0-0.3c0-0.1-0.1-0.2-0.1-0.4c-0.1-0.1-0.2-0.3-0.3-0.4c-0.1-0.1-0.3-0.2-0.5-0.3
		c-0.2-0.1-0.3-0.1-0.5-0.2c-0.2-0.1-0.4-0.1-0.6-0.2c-0.4-0.1-0.7-0.2-1.1-0.4c-0.4-0.1-0.8-0.3-1.2-0.6c-0.5-0.3-0.9-0.7-1.3-1.2
		c-0.3-0.5-0.6-1-0.7-1.5c-0.2-0.5-0.2-1.1-0.2-1.7c0.1-0.6,0.2-1.1,0.5-1.7c0.3-0.5,0.6-0.9,1-1.3C89,6.6,89.5,6.3,90,6.1
		c0.5-0.2,1-0.3,1.5-0.4s1.1,0,1.7,0.2c0.5,0.1,1,0.3,1.5,0.6c0.4,0.3,0.8,0.6,1.2,1c0.3,0.4,0.6,0.8,0.7,1.3c0.2,0.5,0.3,1,0.3,1.5
		h-3.6c0-0.3-0.1-0.6-0.3-0.7c-0.2-0.1-0.4-0.2-0.6-0.3c0,0-0.1,0-0.2,0c-0.1,0-0.2,0-0.4,0c-0.1,0-0.3,0.1-0.4,0.2
		C91.2,9.6,91,9.8,91,9.9c-0.1,0.2-0.1,0.5-0.1,0.7c0.1,0.3,0.2,0.5,0.4,0.6c0.2,0.1,0.4,0.2,0.7,0.3c0.2,0.1,0.5,0.2,0.8,0.3
		c0.2,0.1,0.5,0.2,0.7,0.2c0.3,0.1,0.5,0.2,0.8,0.3c0.9,0.4,1.7,1.1,2.2,1.9c0.5,0.8,0.8,1.8,0.8,2.8c0,1-0.3,1.9-0.8,2.8
		c-0.5,0.8-1.3,1.5-2.2,1.9c-0.4,0.2-0.8,0.3-1.1,0.4C92.8,22.3,92.4,22.3,92,22.3z"/>
</g>
<g>
	<g>
		<path d="M107.9,17.9c-0.1,0.4-0.2,0.9-0.2,1.3c-0.1,0.7-0.7,1-1.1,1.5c-0.8-0.2-1.5,0.3-2.2-0.1c-0.7,0.5-0.4,1.4-0.8,2
			c-0.6-0.2-0.5-0.6-0.4-1c0.1-0.2,0.2-0.3,0.3-0.5c0.7-1.2,0.6-1.5-0.3-2.5c0.3-0.7,0-1.2-0.5-1.6c0.2-1,0-2,1.2-2.7
			c-0.7-0.2-1.3-0.2-1.6-0.7c-0.3-0.5-0.4-1-0.4-1.6c-0.2-0.3-0.5-0.3-0.7-0.4c0.1-0.5,0.7-0.9,0.2-1.6c-0.4,0-0.8,0.2-1.2,0.4
			c0.2-0.4,0.6-0.6,0.4-1c-0.2-0.4-0.5-0.3-0.7-0.4c0.1-0.3-0.2-0.7,0.2-1c-0.1-0.3-0.5-0.5-0.3-1c0.2-0.2,0.8,0.3,0.7-0.6
			c0.7,0.5,1.3,0.6,1.9,0.7c3,0.4,5.8,3.1,6.1,5.2c-0.5-0.6-0.7-1.3-1.3-1.8c-0.6-0.5-1-1.2-1.8-1.7c0.1,0.9-0.6,1.2-1,1.6
			c0,0.3,0.2,0.4,0.3,0.5c0,0.2-0.4,0-0.3,0.3c0.1,0.3,0.4,0.1,0.5,0.2c-0.3,0.3-0.8,0.1-1,0.6c0.5,0,1.1-0.1,1.6,0.1
			c-0.5,0.2-1.1,0.1-1.4,0.6c1.8-0.3,3.6,0.3,5.2,0.7c0.5-0.7-0.4-1.8,0.8-2.2c0.4,0.7,0,1.4,0.2,2.2c1.7-0.4,3.4-1,5.4-0.6
			c-0.4-0.6-1-0.5-1.5-0.7c0.4-0.4,1-0.1,1.5-0.2c-0.2-0.5-0.7-0.3-0.9-0.6c0.1-0.2,0.3,0,0.4-0.2c0.1-0.2-0.1-0.2-0.3-0.3
			c0-0.2,0.3-0.3,0.3-0.6c-0.4-0.4-1.1-0.6-1.1-1.5c-1.3,1-2.4,2.2-3.2,3.6c0.2-0.9,0.6-1.7,1.2-2.4c0.9-1.1,1.9-1.9,3.2-2.5
			c0.5-0.2,1-0.4,1.1-1.3c0.4,0.5,0.7,0.3,1,0.1c0.2,0.3,0.3,0.5,0.6,0.7c0.7,0.3,0.8,0.7,0.6,1.5c-0.2,0.6-0.5,1.2-0.8,1.8
			c0.1,0.4,0.4,0.4,0.6,0.7c-0.1,0.4-0.5,0.4-0.7,0.7c-0.3,1.8-0.5,2-2,2.3c0.4,0.4,0.7,0.7,0.9,1.2c0.2,0.5-0.1,1,0.2,1.4
			c-0.1,0.3-0.4,0.4-0.5,0.7c0,0.4,0.4,0.7,0.6,1.1c-0.2,0.1-0.2-0.3-0.3-0.3c-0.4,0.1-0.2,0.3-0.3,0.4c-0.8,0.7-0.9,0.9-0.5,1.8
			c0.1,0.3,0.3,0.6,0.5,1c0.2,0.4,0.2,0.7-0.3,1c-0.4-0.2-0.4-0.6-0.4-0.9c-0.1-1.1-0.6-1.4-1.6-1.2c-1.3,0.3-2-0.2-2.2-1.6
			c-0.2-1.2-0.7-2.4-1-3.8c0.7,0.8,0.6,1.7,0.9,2.5c0.9-0.3,1-0.3,2.1,0.3c-0.3-0.6,0.6-0.9,0.3-1.4c0.3-0.2,0.6-0.5,0.9-0.7
			c-0.4-0.7-1.1-1.1-1.4-1.9c-0.7,0-1.4-0.4-2,0.3c-0.2-0.7-0.8-0.2-1.2-0.4c-0.3,0.8-0.2,1.7-0.5,2.5c-0.4-0.8-0.1-1.7-0.4-2.5
			c-1-0.1-1-0.1-1.3,0.3c-0.4-0.4-0.6-0.5-2-0.3c-0.3,0.7-1,1.2-1.5,1.9c0.2,0.3,0.9,0.4,0.8,0.9c-0.1,0.5,0.7,0.7,0.2,1.2
			C106.4,17.6,107.1,17.3,107.9,17.9L107.9,17.9z"/>
		<path d="M110,8.9c0,0.5,0.2,0.9,0.3,1.4c0.1,0.4,0.1,0.8-0.4,0.9c-0.5,0.1-0.7-0.2-0.8-0.6C108.9,9.9,109.2,9.4,110,8.9z"/>
	</g>
</g>
</svg>
